<?xml version="1.0" standalone="no"?>
<!DOCTYPE svg PUBLIC "-//W3C//DTD SVG 20010904//EN"
 "http://www.w3.org/TR/2001/REC-SVG-20010904/DTD/svg10.dtd">
<svg version="1.0" xmlns="http://www.w3.org/2000/svg"
 width="250.000000pt" height="226.000000pt" viewBox="0 0 250.000000 226.000000"
 preserveAspectRatio="xMidYMid meet">
<metadata>
Created by potrace 1.11, written by Peter Selinger 2001-2013
</metadata>
<g transform="translate(0.000000,226.000000) scale(0.100000,-0.100000)"
fill="#000000" stroke="none">
<path d="M1877 2098 c11 -87 6 -163 -12 -202 -17 -35 -25 -40 -169 -105 -87
-40 -89 -41 -175 -35 -47 3 -105 2 -128 -4 -35 -8 -47 -6 -74 10 -17 10 -61
31 -98 46 -134 53 -147 76 -138 241 6 120 0 120 -53 6 -41 -90 -54 -165 -39
-228 11 -48 52 -137 81 -179 10 -14 8 -26 -10 -64 l-23 -46 -28 38 c-37 51
-70 80 -104 93 -33 13 -127 15 -127 3 0 -5 13 -21 30 -37 40 -39 54 -84 41
-132 -19 -66 -14 -118 14 -151 14 -17 38 -33 54 -37 32 -7 52 -44 72 -130 23
-98 80 -181 139 -203 14 -5 55 -15 93 -22 37 -7 67 -16 67 -20 0 -4 -7 -24
-15 -44 -25 -59 -99 -76 -130 -30 -19 29 -71 54 -113 54 -28 0 -72 -35 -72
-57 0 -7 -11 -20 -25 -31 -22 -17 -30 -18 -60 -9 -19 6 -35 14 -35 18 0 9 -75
34 -145 49 l-50 11 -2 58 c-2 65 -22 113 -56 136 -13 8 -63 22 -113 30 -49 9
-114 22 -145 30 -31 8 -65 15 -75 15 -18 -1 -18 -2 1 -16 47 -36 150 -87 203
-101 69 -18 82 -28 82 -62 0 -55 -9 -57 -127 -23 -158 47 -373 77 -357 51 14
-24 234 -120 332 -145 108 -29 117 -37 92 -85 -14 -24 -42 -24 -110 2 -58 22
-254 40 -235 22 6 -5 42 -22 80 -38 39 -16 100 -43 137 -62 46 -23 82 -33 113
-33 39 0 50 5 88 43 24 23 48 50 54 60 9 17 13 16 69 -9 36 -17 80 -28 114
-29 30 -2 58 -3 63 -4 4 -1 7 -17 7 -37 0 -49 15 -73 57 -90 30 -13 38 -13 55
-2 19 13 24 11 44 -9 35 -35 85 -31 118 8 14 17 26 35 26 40 0 6 12 9 26 7 22
-2 29 -11 39 -45 7 -24 22 -58 33 -77 l21 -35 -25 -46 c-22 -39 -30 -45 -58
-45 -30 0 -104 -39 -169 -90 -29 -23 -60 -76 -71 -122 l-6 -26 63 1 62 2 -4
-44 c-3 -39 -1 -43 15 -37 11 5 51 12 89 17 102 14 108 16 141 46 56 50 69
104 44 174 -11 30 -10 40 3 65 l16 30 88 0 88 -1 16 -35 c14 -29 14 -38 3 -55
-29 -45 -21 -116 17 -160 43 -48 57 -54 147 -65 42 -5 88 -13 100 -16 23 -7
24 -5 20 37 -3 42 -2 44 25 47 16 2 41 -1 57 -7 16 -5 32 -7 34 -3 2 4 -4 32
-14 62 -18 54 -76 120 -105 120 -7 0 -18 6 -24 14 -10 11 -4 13 31 9 56 -6
109 27 134 85 1 2 38 -6 82 -17 44 -12 83 -21 86 -21 3 0 13 11 22 25 23 35 8
49 -76 70 l-70 17 0 37 c0 20 -3 46 -6 59 -11 41 -94 68 -122 40 -9 -9 -12 -8
-12 6 0 21 -56 46 -91 39 -20 -4 -32 3 -57 32 -38 43 -105 172 -99 189 3 7 36
18 73 25 141 25 195 74 229 209 29 113 44 142 76 142 34 0 84 48 92 88 3 17 2
45 -3 64 -22 75 -11 128 38 180 l25 27 -24 6 c-31 8 -112 -10 -146 -32 -13 -9
-39 -38 -57 -64 l-32 -47 -27 49 -28 49 25 33 c36 47 73 134 81 188 9 59 -13
146 -60 239 -19 38 -38 70 -41 70 -3 0 -1 -28 3 -62z m-137 -560 c54 -28 96
-99 86 -146 -12 -52 -45 -93 -92 -114 -153 -67 -296 111 -183 228 55 56 119
67 189 32z m-380 -9 c42 -24 80 -83 80 -124 0 -77 -71 -145 -153 -145 -140 0
-214 131 -130 231 51 60 135 76 203 38z m-90 -360 l50 -11 0 -80 c0 -89 4 -86
-77 -52 -33 13 -33 13 -33 83 0 39 2 71 5 71 2 0 27 -5 55 -11z m479 -60 c-2
-64 -4 -71 -28 -83 -14 -8 -41 -17 -58 -21 l-33 -7 0 81 0 80 38 6 c20 4 42 8
47 10 33 11 36 5 34 -66z m-306 41 l27 0 0 -79 c0 -44 -3 -82 -8 -85 -4 -2
-32 -1 -62 2 l-55 7 -3 84 -3 84 38 -7 c21 -3 50 -6 66 -6z m175 -69 c2 -41
-1 -77 -5 -81 -4 -4 -36 -11 -70 -14 l-63 -7 0 85 0 85 48 4 c91 7 87 11 90
-72z m-1164 33 c49 -8 99 -19 112 -24 37 -14 56 -54 63 -132 l6 -72 55 -11
c106 -22 130 -34 130 -64 0 -15 -6 -35 -12 -44 -11 -14 -19 -15 -53 -6 -22 6
-62 22 -89 35 -27 13 -50 24 -51 24 -1 0 -16 -21 -35 -46 -37 -51 -83 -84
-119 -84 -13 0 -72 22 -130 49 -58 26 -115 51 -125 55 -10 3 -17 8 -15 10 8 8
137 -15 197 -35 58 -19 65 -20 87 -5 22 14 45 79 33 91 -2 3 -47 16 -99 29
-94 25 -200 65 -274 104 -37 19 -38 21 -14 22 45 0 190 -28 284 -56 50 -14 98
-28 107 -31 11 -3 22 5 32 26 32 61 12 93 -70 115 -62 16 -184 79 -139 72 17
-3 70 -13 119 -22z"/>
<path d="M1627 1473 c-4 -3 -7 -13 -7 -21 0 -7 -10 -22 -21 -31 -31 -25 -15
-69 33 -96 30 -16 40 -17 63 -7 14 7 23 17 20 23 -4 6 2 13 14 16 31 8 29 66
-4 98 -23 24 -82 35 -98 18z"/>
<path d="M1233 1463 c-3 -10 -15 -28 -25 -39 -18 -20 -18 -24 -5 -57 11 -25
25 -38 51 -47 39 -13 76 -1 76 25 0 8 7 15 15 15 14 0 20 24 15 60 -1 8 -11
25 -23 38 -26 28 -94 31 -104 5z"/>
</g>
</svg>
